<?xml version="1.0" encoding="UTF-8" standalone="no"?>
<svg
   width="100%"
   height="100%"
   viewBox="187.5 225 125 150"
   version="1.1"
   xml:space="preserve"
   style="fill-rule:evenodd;clip-rule:evenodd;stroke-linejoin:round;stroke-miterlimit:1.41421"
   id="svg93"
   sodipodi:docname="gnome-control-center-gentoo-logo-dark.svg"
   inkscape:version="1.3.2 (091e20ef0f, 2023-11-25)"
   xmlns:inkscape="http://www.inkscape.org/namespaces/inkscape"
   xmlns:sodipodi="http://sodipodi.sourceforge.net/DTD/sodipodi-0.dtd"
   xmlns:xlink="http://www.w3.org/1999/xlink"
   xmlns="http://www.w3.org/2000/svg"
   xmlns:svg="http://www.w3.org/2000/svg"
   xmlns:rdf="http://www.w3.org/1999/02/22-rdf-syntax-ns#"
   xmlns:cc="http://creativecommons.org/ns#"><sodipodi:namedview
     id="namedview95"
     pagecolor="#ffffff"
     bordercolor="#000000"
     borderopacity="0.25"
     inkscape:showpageshadow="2"
     inkscape:pageopacity="0.0"
     inkscape:pagecheckerboard="0"
     inkscape:deskcolor="#d1d1d1"
     showgrid="false"
     inkscape:zoom="3.7641575"
     inkscape:cx="49.54628"
     inkscape:cy="82.754243"
     inkscape:window-width="1393"
     inkscape:window-height="1243"
     inkscape:window-x="374"
     inkscape:window-y="95"
     inkscape:window-maximized="0"
     inkscape:current-layer="svg93" /><rect
     id="rect3326"
     style="fill:none;stroke-width:0.3068"
     height="71.223351"
     width="77.178215"
     y="238.90039"
     x="212.02852" /><path
     id="path3227"
     sodipodi:rx="82.922791"
     sodipodi:ry="83.887009"
     style="opacity:0.85;fill:#000000;fill-rule:evenodd;stroke-width:1.62598;filter:url(#filter3758)"
     sodipodi:type="arc"
     d="m 700.02258,299.87195 a 82.922791,83.887009 0 0 1 -82.92243,83.88701 82.922791,83.887009 0 0 1 -82.92315,-83.88628 82.922791,83.887009 0 0 1 82.92171,-83.88774 82.922791,83.887009 0 0 1 82.92387,83.88555"
     sodipodi:open="true"
     transform="matrix(0.26267785,0,0,0.20960365,107.01723,227.04665)"
     sodipodi:cy="299.87195"
     sodipodi:cx="617.09979"
     sodipodi:end="6.2831679"
     sodipodi:start="0"
     sodipodi:arc-type="arc" /><path
     id="path3213"
     sodipodi:rx="77.137474"
     sodipodi:ry="97.386063"
     style="opacity:0.85;fill:#000000;fill-rule:evenodd;stroke:#000000;stroke-width:3.84463;filter:url(#filter3762)"
     sodipodi:type="arc"
     d="m 507.17892,269.01694 a 77.137474,97.386063 0 0 1 -77.13714,97.38606 77.137474,97.386063 0 0 1 -77.13781,-97.38522 77.137474,97.386063 0 0 1 77.13647,-97.38691 77.137474,97.386063 0 0 1 77.13848,97.38437"
     sodipodi:open="true"
     transform="matrix(0.24003061,0,0,0.23876921,128.46197,224.41052)"
     sodipodi:cy="269.01694"
     sodipodi:cx="430.04144"
     sodipodi:end="6.2831679"
     sodipodi:start="0"
     sodipodi:arc-type="arc" /><path
     id="path3215"
     sodipodi:rx="17.62385"
     sodipodi:ry="22.71328"
     style="fill:url(#radialGradient3309);fill-rule:evenodd;stroke-width:1"
     sodipodi:type="arc"
     d="m 249.13004,289.1976 a 17.62385,22.71328 0 0 1 -17.62377,22.71328 17.62385,22.71328 0 0 1 -17.62392,-22.71308 17.62385,22.71328 0 0 1 17.62361,-22.71348 17.62385,22.71328 0 0 1 17.62408,22.71289"
     sodipodi:open="true"
     sodipodi:cy="289.1976"
     sodipodi:cx="231.5062"
     sodipodi:end="6.2831679"
     sodipodi:start="0"
     sodipodi:arc-type="arc" /><path
     id="path3229"
     sodipodi:rx="19.069304"
     sodipodi:ry="16.6583"
     style="fill:url(#radialGradient3319);fill-rule:evenodd;stroke-width:1"
     sodipodi:type="arc"
     d="m 287.64203,291.18823 a 19.069304,16.6583 0 0 1 -19.06922,16.6583 19.069304,16.6583 0 0 1 -19.06939,-16.65815 19.069304,16.6583 0 0 1 19.06905,-16.65845 19.069304,16.6583 0 0 1 19.06956,16.65801"
     sodipodi:open="true"
     sodipodi:cy="291.18823"
     sodipodi:cx="268.57272"
     sodipodi:end="6.2831679"
     sodipodi:start="0"
     sodipodi:arc-type="arc" /><path
     id="path3231"
     sodipodi:rx="5.0489869"
     sodipodi:ry="7.5261145"
     style="fill:#000000;fill-rule:evenodd;stroke-width:1"
     sodipodi:type="arc"
     d="m 259.65078,291.37238 a 5.0489869,7.5261145 0 0 1 -5.04897,7.52611 5.0489869,7.5261145 0 0 1 -5.04901,-7.52605 5.0489869,7.5261145 0 0 1 5.04893,-7.52618 5.0489869,7.5261145 0 0 1 5.04905,7.52598"
     sodipodi:open="true"
     sodipodi:cy="291.37238"
     sodipodi:cx="254.60179"
     sodipodi:end="6.2831679"
     sodipodi:start="0"
     sodipodi:arc-type="arc" /><path
     id="path3328"
     sodipodi:nodetypes="cccc"
     style="opacity:0.8;fill:url(#linearGradient2953);fill-rule:evenodd;stroke-width:0.3068"
     d="m 220.3244,274.14541 c 13.3267,-18.2953 29.63401,2.14706 27.70217,16.02069 -4.38713,3.28359 -8.94799,1.23439 -8.94799,1.23439 -1.03364,-12.04735 -8.6628,-15.425 -18.75362,-17.25508 z" /><path
     id="path3217"
     sodipodi:rx="5.0489869"
     sodipodi:ry="7.5261145"
     style="fill:#000000;fill-rule:evenodd;stroke:#000000;stroke-width:2.3"
     sodipodi:type="arc"
     d="m 248.80118,291.21606 a 5.0489869,7.5261145 0 0 1 -5.04896,7.52612 5.0489869,7.5261145 0 0 1 -5.04901,-7.52605 5.0489869,7.5261145 0 0 1 5.04892,-7.52618 5.0489869,7.5261145 0 0 1 5.04905,7.52598"
     sodipodi:open="true"
     sodipodi:cy="291.21606"
     sodipodi:cx="243.7522"
     sodipodi:end="6.2831679"
     sodipodi:start="0"
     sodipodi:arc-type="arc" /><path
     id="path3374"
     sodipodi:nodetypes="cccc"
     style="opacity:0.8;fill:url(#linearGradient2949);fill-rule:evenodd;stroke-width:0.3068"
     d="m 265.76471,275.98063 c 6.9219,-2.20684 24.11527,6.38025 20.19549,15.41929 l -7.9342,0.36712 c 0,0 -5.04896,-11.74809 -12.26185,-15.78653 z" /><path
     id="path3384"
     sodipodi:nodetypes="ccc"
     style="opacity:0.8;fill:url(#radialGradient2946);fill-rule:evenodd;stroke-width:0.3068"
     d="m 252.56162,299.01609 c 11.97255,6.76481 23.16151,6.53483 33.3406,-2.97367 -6.82371,14.50701 -20.08514,15.89447 -33.3406,2.97367 z" /><path
     id="path3402"
     sodipodi:nodetypes="ccc"
     style="opacity:0.8;fill:url(#radialGradient2943);fill-rule:evenodd;stroke-width:0.3068"
     d="m 216.24379,282.76372 c -0.10362,16.13224 10.29728,24.61748 24.75298,26.03577 -17.72244,5.6812 -26.83817,-9.76932 -24.75298,-26.03577 z" /><path
     id="path3406-2"
     sodipodi:nodetypes="csccscc"
     style="fill:url(#linearGradient18804);fill-rule:evenodd;stroke-width:1.62598;filter:url(#filter3799-4)"
     d="m 260.87671,73.60236 c 0,0 9.93389,33.20513 44.1131,26.76782 36.72872,-6.917483 75.48611,4.99818 75.48611,4.99818 60.02146,1.92451 11.56655,-14.207874 -28.43796,-33.168974 5.03972,-3.740211 -27.5969,-12.667943 -43.7376,-20.575819 -37.44448,-18.34532 -54.35278,-45.9790279 -74.18575,-8.878556 z"
     transform="matrix(0.17495256,0,0,0.05540696,156.81615,244.09956)" /><path
     id="path3406-2-9"
     sodipodi:nodetypes="csccsccc"
     style="fill:url(#linearGradient18804-4);fill-rule:evenodd;stroke-width:1.62598;filter:url(#filter3799-4-3)"
     d="m 194.30681,79.087893 c 0,0 49.61622,-19.576227 69.93893,-19.935664 36.84413,-0.651642 116.23018,46.216131 116.23018,46.216131 39.21606,14.42497 10.01054,-5.612561 -29.99397,-24.573661 0,0 -34.46552,-20.695507 -44.69922,-23.932382 C 275.27658,47.213344 264.50014,40.23348 241.2949,45.25937 l -17.29671,9.770499 z"
     transform="matrix(0.07806433,0,0,0.03219343,191.54435,243.23544)" /><path
     id="path3828"
     sodipodi:nodetypes="cccc"
     style="fill:url(#linearGradient2922);fill-rule:evenodd;stroke-width:0.3068"
     d="m 242.73786,283.98021 c 0,0 1.24696,3.66721 1.33933,6.77015 2.72477,-0.94029 4.15653,-1.88058 4.15653,-1.88058 0,0 -0.69277,-4.88941 -5.49592,-4.88941 z" /><g
     id="g53374"
     transform="matrix(0.18701257,0,0,0.19037572,157.49784,242.99483)"
     style="stroke-width:1.62598"><path
       id="path3202-9-9"
       sodipodi:nodetypes="cccscccsscscc"
       style="fill:url(#radialGradient2940-7-5);fill-rule:evenodd;stroke-width:0.960591"
       d="m 516.04304,110.07775 9.5069,-0.0625 33.05123,-17.7989 c 16.26849,-6.45238 124.17407,-74.563605 182.02418,-44.053882 41.02215,21.634784 43.10906,41.85927 43.10906,41.85927 0,0 -84.10051,-84.0115078 -114.088,-76.285717 C 638.90241,8.4082742 620.37394,70.20899 520.88681,84.39068 506.14109,84.41092 408.42775,49.745094 330.53605,36.160125 288.36047,28.804349 221.12646,114.3646 215.43689,105.60312 198.20079,79.060895 318.67542,52.76519 318.67542,52.76519 c 0,0 105.85652,28.98316 141.81052,42.10202 35.954,13.11886 55.557,15.21017 55.557,15.21017 z" /><path
       id="path3202-9-9-0"
       sodipodi:nodetypes="cccsccsccsscscc"
       style="fill:url(#radialGradient2940-7-5-9);fill-rule:evenodd;stroke-width:1.10674"
       d="m 509.88957,122.51569 v 0 l 29.60931,-12.54377 c 17.79772,-7.82918 135.84632,-90.473859 199.13428,-53.454024 44.87819,26.251174 61.30946,97.778084 61.30946,97.778084 v 0 L 780.90979,128.62639 C 759.21302,99.363946 685.09256,7.8561424 660.98227,14.745592 627.34836,8.281021 607.07823,83.26867 498.23941,100.47642 482.10761,100.50098 375.20931,58.43822 289.99587,41.954514 243.85582,33.029138 217.8092,172.81729 211.58481,162.1863 192.72854,129.98054 266.63793,55.53309 266.63793,55.53309 c 0,0 127.55468,38.26082 168.80854,48.19268 42.48326,10.22783 46.65255,13.15005 46.65255,13.15005 z" /><path
       id="path3202-9-9-5"
       sodipodi:nodetypes="cccscccsscscc"
       style="fill:url(#radialGradient38250);fill-opacity:1;fill-rule:evenodd;stroke-width:0.995788"
       d="m 505.13783,112.97723 10.21635,-0.0625 35.51768,-17.7989 c 17.48253,-6.45238 133.44057,-74.563605 195.60775,-44.053882 44.08343,21.634784 46.32607,41.859272 46.32607,41.859272 0,0 -84.33034,-72.731372 -116.55565,-65.005581 C 643.21176,22.587892 605.15078,86.29473 498.23941,100.47642 482.39329,100.49666 394.07918,60.201328 310.37481,46.616359 265.05187,39.260583 173.2821,129.29498 173.2821,129.29498 180.88285,78.201216 293.04164,55.66467 293.04164,55.66467 c 0,0 113.75607,28.98316 152.39314,42.10202 38.63707,13.11886 59.70294,15.21017 59.70294,15.21017 z" /><path
       id="path3202-9"
       sodipodi:nodetypes="cccscccscscc"
       style="fill:url(#radialGradient2940-7);fill-rule:evenodd;stroke-width:0.960591"
       d="m 509.88967,122.51606 9.5069,-0.0625 33.05123,-17.7989 c 16.26849,-6.452373 116.82314,-49.182459 182.02418,-44.053878 92.32959,7.262458 77.29685,-14.141577 77.29685,-14.141577 0,0 -70.05752,-25.375363 -100.04501,-17.649572 -30.744,-5.327747 -97.50325,53.837671 -196.99038,68.019358 -22.73,0.03124 -252.85805,-49.962659 -282.27505,-45.589579 -29.417,4.372836 41.27373,31.795718 41.27373,31.795718 0,0 144.64645,11.15153 180.60045,24.27039 35.954,13.11886 55.557,15.21017 55.557,15.21017 z" /><path
       id="path3406-4"
       sodipodi:nodetypes="cscsccc"
       style="fill:url(#linearGradient18493);fill-rule:evenodd;stroke-width:1.62598;filter:url(#filter3799-3)"
       d="m 660.48298,42.939507 c 0,0 46.522,3.1015 77.094,21.71 30.572,18.609 41.648,44.307003 41.648,44.307003 6.53188,-7.40421 18.40472,-9.522862 22.64745,-15.489347 11.75874,-16.536137 5.83216,-33.727728 -20.87515,-53.186656 -37.355,-18.836 -83.277,-14.983 -120.51,2.6584 z"
       transform="matrix(0.86679493,0,0,0.36419571,107.00722,21.247772)" /><path
       id="path3828-0"
       sodipodi:nodetypes="csccc"
       style="fill:url(#linearGradient23497);fill-rule:evenodd;stroke-width:0.704252"
       d="m 292.69467,126.2285 c 0,0 5.66083,-3.35402 3.36366,-4.39336 -2.48553,-1.12456 -13.24775,-0.66041 -15.90489,-2.87176 -1.293,7.72667 -1.2509,12.42968 -1.2509,12.42968 0,0 7.05336,-0.7755 13.79213,-5.16456 z" /></g><path
     id="path3830"
     sodipodi:nodetypes="ccc"
     style="fill:url(#linearGradient2919);fill-rule:evenodd;stroke-width:0.3068"
     d="m 239.90274,286.58456 c -0.53092,4.76205 1.70459,9.48604 6.37339,10.86036 -6.72684,2.7119 -8.84401,-6.10859 -6.37339,-10.86036 z" /><path
     id="path3836"
     sodipodi:nodetypes="cccc"
     style="fill:url(#linearGradient2916);fill-rule:evenodd;stroke-width:0.3068"
     d="m 253.43872,284.22009 c 0,0 1.24696,3.66721 1.33932,6.77014 2.72477,-0.94029 4.15655,-1.88057 4.15655,-1.88057 0,0 -0.69278,-4.88942 -5.49594,-4.88942 z" /><path
     id="path3838"
     sodipodi:nodetypes="cscc"
     style="fill:url(#linearGradient2913);fill-rule:evenodd;stroke-width:0.3068"
     d="m 250.99446,286.98244 c 0,0 -0.46184,4.09022 1.24696,6.86419 1.70881,2.77377 3.64861,3.6672 5.12639,3.99617 -6.72684,2.71191 -8.84401,-6.10858 -6.37339,-10.86036 z" /><defs
     id="defs91"><linearGradient
       id="linearGradient18"
       inkscape:collect="always"><stop
         style="stop-color:#fdf3d5;stop-opacity:0.86712515;"
         offset="0.53134453"
         id="stop18" /><stop
         style="stop-color:#fbb708;stop-opacity:0;"
         offset="1"
         id="stop19" /></linearGradient><color-profile
       name="ASUS-VS228"
       xlink:href="../../../../../../.local/share/icc/edid-600da72e2c3ba1f8b07c055360f1405d.icc"
       id="color-profile2" /><linearGradient
       id="_Linear1"
       x1="0"
       y1="0"
       x2="1"
       y2="0"
       gradientUnits="userSpaceOnUse"
       gradientTransform="matrix(244.692,1281.55,-1281.55,244.692,5.26495,-872.781)"><stop
         offset="0%"
         style="stop-color:#fff;stop-opacity:1"
         id="stop39" /><stop
         offset="34%"
         style="stop-color:#fff;stop-opacity:1"
         id="stop41" /><stop
         offset="51%"
         style="stop-color:#bebdf3;stop-opacity:1"
         id="stop43" /><stop
         offset="75%"
         style="stop-color:#867fb7;stop-opacity:1"
         id="stop45" /><stop
         offset="87%"
         style="stop-color:#9f99c7;stop-opacity:1"
         id="stop47" /><stop
         offset="100%"
         style="stop-color:#524c76;stop-opacity:1"
         id="stop49" /></linearGradient><linearGradient
       id="_Linear2"
       x1="0"
       y1="0"
       x2="1"
       y2="0"
       gradientUnits="userSpaceOnUse"
       gradientTransform="matrix(-73.9103,-331.394,331.394,-73.9103,306.28,306.967)"><stop
         offset="0%"
         style="stop-color:#fff;stop-opacity:1"
         id="stop52" /><stop
         offset="34%"
         style="stop-color:#fff;stop-opacity:1"
         id="stop54" /><stop
         offset="51%"
         style="stop-color:#bebbdb;stop-opacity:1"
         id="stop56" /><stop
         offset="75%"
         style="stop-color:#928bbe;stop-opacity:1"
         id="stop58" /><stop
         offset="87%"
         style="stop-color:#9f99c7;stop-opacity:1"
         id="stop60" /><stop
         offset="100%"
         style="stop-color:#524c76;stop-opacity:1"
         id="stop62" /></linearGradient><radialGradient
       id="_Radial3"
       cx="0"
       cy="0"
       r="1"
       gradientUnits="userSpaceOnUse"
       gradientTransform="matrix(65.7758,0,0,50.4149,219.576,105.5)"><stop
         offset="0%"
         style="stop-color:#fff;stop-opacity:1"
         id="stop65" /><stop
         offset="34%"
         style="stop-color:#fff;stop-opacity:1"
         id="stop67" /><stop
         offset="51%"
         style="stop-color:#bebbdb;stop-opacity:1"
         id="stop69" /><stop
         offset="75%"
         style="stop-color:#928bbe;stop-opacity:1"
         id="stop71" /><stop
         offset="87%"
         style="stop-color:#9f99c7;stop-opacity:1"
         id="stop73" /><stop
         offset="100%"
         style="stop-color:#524c76;stop-opacity:1"
         id="stop75" /></radialGradient><radialGradient
       id="_Radial4"
       cx="0"
       cy="0"
       r="1"
       gradientUnits="userSpaceOnUse"
       gradientTransform="matrix(-9.01713,572.145,-487.965,-7.68295,69.926,121.634)"><stop
         offset="0%"
         style="stop-color:#fff;stop-opacity:1"
         id="stop78" /><stop
         offset="34%"
         style="stop-color:#fff;stop-opacity:1"
         id="stop80" /><stop
         offset="51%"
         style="stop-color:#bebbdb;stop-opacity:1"
         id="stop82" /><stop
         offset="75%"
         style="stop-color:#928bbe;stop-opacity:1"
         id="stop84" /><stop
         offset="87%"
         style="stop-color:#9f99c7;stop-opacity:1"
         id="stop86" /><stop
         offset="100%"
         style="stop-color:#524c76;stop-opacity:1"
         id="stop88" /></radialGradient><filter
       id="filter3758"
       inkscape:collect="always"
       x="-0.048603138"
       y="-0.048044482"
       width="1.0972063"
       height="1.096089"><feGaussianBlur
         id="feGaussianBlur3760"
         stdDeviation="3.35859"
         inkscape:collect="always" /></filter><filter
       id="filter3762"
       inkscape:collect="always"
       x="-0.06669133"
       y="-0.052824815"
       width="1.1333827"
       height="1.1056496"><feGaussianBlur
         id="feGaussianBlur3764"
         stdDeviation="3.486036"
         inkscape:collect="always" /></filter><radialGradient
       id="radialGradient3309"
       xlink:href="#linearGradient3303"
       gradientUnits="userSpaceOnUse"
       cy="269.01999"
       cx="430.04001"
       gradientTransform="matrix(0.22847325,0,0,0.29445195,133.25322,209.98501)"
       r="77.137001"
       inkscape:collect="always" /><linearGradient
       id="linearGradient3303"><stop
         id="stop3305"
         style="stop-color:rgb(210, 210, 210)"
         offset="0" /><stop
         id="stop3311"
         style="stop-color:rgb(210, 210, 210)"
         offset=".88" /><stop
         id="stop3307"
         style="stop-color:rgb(128, 128, 128)"
         offset="1" /></linearGradient><radialGradient
       id="radialGradient3319"
       xlink:href="#linearGradient3303"
       gradientUnits="userSpaceOnUse"
       cy="306.62"
       cx="615.16998"
       gradientTransform="matrix(0.2472119,0,0,0.21595602,116.49503,224.97148)"
       r="77.137001"
       inkscape:collect="always" /><linearGradient
       id="linearGradient2953"
       y2="237.22"
       xlink:href="#linearGradient3396"
       gradientUnits="userSpaceOnUse"
       x2="1487.2"
       gradientTransform="matrix(0.18701257,0,0,0.19037572,-34.28385,241.47027)"
       y1="177.42999"
       x1="1449.7"
       inkscape:collect="always" /><linearGradient
       id="linearGradient3396"><stop
         id="stop3398"
         style="stop-color:rgb(255, 255, 255)"
         offset="0" /><stop
         id="stop3400"
         style="stop-color:rgb(255, 255, 255);stop-opacity:0"
         offset="1" /></linearGradient><linearGradient
       id="linearGradient2949"
       y2="249.2"
       xlink:href="#linearGradient3396"
       gradientUnits="userSpaceOnUse"
       x2="1664.2"
       gradientTransform="matrix(0.18701257,0,0,0.19037572,-33.199172,240.73599)"
       y1="197.06"
       x1="1632.9"
       inkscape:collect="always" /><radialGradient
       id="radialGradient2946"
       xlink:href="#linearGradient3396"
       gradientUnits="userSpaceOnUse"
       cy="319.54001"
       cx="1619.9"
       gradientTransform="matrix(-0.18701257,-1.7465829e-7,6.193669e-8,-0.06872563,572.16048,323.36324)"
       r="89.638"
       inkscape:collect="always" /><radialGradient
       id="radialGradient2943"
       xlink:href="#linearGradient3396"
       gradientUnits="userSpaceOnUse"
       cy="319.54001"
       cx="1619.9"
       gradientTransform="matrix(-0.14058856,-0.17719218,0.06721792,-0.04719604,431.0969,601.841)"
       r="89.638"
       inkscape:collect="always" /><linearGradient
       inkscape:collect="always"
       xlink:href="#linearGradient3396"
       id="linearGradient18804"
       gradientUnits="userSpaceOnUse"
       gradientTransform="translate(-1228.0642,-259.91682)"
       x1="1557.3416"
       y1="294.25241"
       x2="1532.6"
       y2="393.51001" /><filter
       id="filter3799-4"
       inkscape:collect="always"
       x="-0.030705521"
       y="-0.066063618"
       width="1.061411"
       height="1.1321272"><feGaussianBlur
         id="feGaussianBlur3801-8"
         stdDeviation="2.2333129"
         inkscape:collect="always" /></filter><linearGradient
       inkscape:collect="always"
       xlink:href="#linearGradient3396"
       id="linearGradient18804-4"
       gradientUnits="userSpaceOnUse"
       gradientTransform="translate(-1228.0642,-259.91682)"
       x1="1556.9656"
       y1="283.08633"
       x2="1532.6"
       y2="393.51001" /><filter
       id="filter3799-4-3"
       inkscape:collect="always"
       x="-0.026182867"
       y="-0.080350132"
       width="1.0523657"
       height="1.1607003"><feGaussianBlur
         id="feGaussianBlur3801-8-7"
         stdDeviation="2.2333129"
         inkscape:collect="always" /></filter><linearGradient
       id="linearGradient2922"
       y2="262.63"
       xlink:href="#linearGradient3396"
       gradientUnits="userSpaceOnUse"
       x2="1506.4"
       gradientTransform="matrix(0.18701257,0,0,0.19037572,-35.518127,240.75199)"
       y1="234.5"
       x1="1498.6"
       inkscape:collect="always" /><radialGradient
       id="radialGradient2940-7-5"
       xlink:href="#linearGradient3420"
       gradientUnits="userSpaceOnUse"
       cy="418.72"
       cx="510.07001"
       gradientTransform="matrix(0.97947202,0.20158018,-0.04215703,0.20484005,31.01585,-104.00836)"
       r="90.912003"
       inkscape:collect="always"
       fx="510.07001"
       fy="418.72" /><linearGradient
       id="linearGradient3420"><stop
         id="stop3422"
         style="stop-color:rgb(223, 190, 0)"
         offset="0" /><stop
         id="stop3436"
         style="stop-color:rgb(222, 175, 0)"
         offset="0.8" /><stop
         id="stop3424"
         style="stop-color:rgb(222, 161, 1)"
         offset="1" /></linearGradient><radialGradient
       id="radialGradient2940-7-5-9"
       xlink:href="#linearGradient3420"
       gradientUnits="userSpaceOnUse"
       cy="236.28363"
       cx="576.10675"
       gradientTransform="matrix(0.71380611,-0.9367615,0.93134002,0.47770023,-62.542959,498.31855)"
       r="90.912003"
       inkscape:collect="always"
       fx="576.10675"
       fy="236.28363" /><radialGradient
       inkscape:collect="always"
       xlink:href="#linearGradient38712"
       id="radialGradient38250"
       cx="487.08627"
       cy="80.985451"
       fx="487.08627"
       fy="80.985451"
       r="309.76178"
       gradientTransform="matrix(1.7493622,-0.21980582,0.01778035,0.14150795,-370.48639,167.05094)"
       gradientUnits="userSpaceOnUse" /><linearGradient
       id="linearGradient38712"
       inkscape:collect="always"><stop
         id="stop38708"
         style="stop-color:rgb(60, 60, 60)"
         offset="0" /><stop
         id="stop38710"
         style="stop-color:#3c3c3c;stop-opacity:0.8561843"
         offset="1" /></linearGradient><radialGradient
       id="radialGradient2940-7"
       xlink:href="#linearGradient3420"
       gradientUnits="userSpaceOnUse"
       cy="418.72"
       cx="510.07001"
       gradientTransform="matrix(0.97947202,0.20158018,-0.04215703,0.20484005,24.862479,-91.570042)"
       r="90.912003"
       inkscape:collect="always"
       fx="510.07001"
       fy="418.72" /><linearGradient
       inkscape:collect="always"
       xlink:href="#linearGradient3396"
       id="linearGradient18493"
       gradientUnits="userSpaceOnUse"
       gradientTransform="translate(-795.47702,-295.63749)"
       x1="1563.5"
       y1="341.23001"
       x2="1532.6"
       y2="393.51001" /><filter
       id="filter3799-3"
       inkscape:collect="always"
       x="-0.036426545"
       y="-0.066062929"
       width="1.0728531"
       height="1.1321259"><feGaussianBlur
         id="feGaussianBlur3801-6"
         stdDeviation="2.2333129"
         inkscape:collect="always" /></filter><linearGradient
       inkscape:collect="always"
       xlink:href="#linearGradient3396"
       id="linearGradient23497"
       gradientUnits="userSpaceOnUse"
       gradientTransform="matrix(-0.19309977,0.43732225,-0.30784341,-0.27431748,649.69849,-462.81636)"
       x1="1498.6"
       y1="234.5"
       x2="1494.3365"
       y2="241.96991" /><linearGradient
       id="linearGradient2919"
       y2="303.34"
       xlink:href="#linearGradient3820"
       gradientUnits="userSpaceOnUse"
       x2="1484.5"
       gradientTransform="matrix(0.18701257,0,0,0.19037572,-34.713982,239.8774)"
       y1="270"
       x1="1466.7"
       inkscape:collect="always" /><linearGradient
       id="linearGradient3820"
       inkscape:collect="always"><stop
         id="stop3822"
         style="stop-color:rgb(60, 60, 60)"
         offset="0" /><stop
         id="stop3824"
         style="stop-color:rgb(60, 60, 60);stop-opacity:0"
         offset="1" /></linearGradient><linearGradient
       id="linearGradient2916"
       y2="262.63"
       xlink:href="#linearGradient3396"
       gradientUnits="userSpaceOnUse"
       x2="1508.4"
       gradientTransform="matrix(0.18701257,0,0,0.19037572,-24.821015,240.99053)"
       y1="231.99001"
       x1="1498.2"
       inkscape:collect="always" /><linearGradient
       id="linearGradient2913"
       y2="303.34"
       xlink:href="#linearGradient3820"
       gradientUnits="userSpaceOnUse"
       x2="1484.5"
       gradientTransform="matrix(0.18701257,0,0,0.19037572,-23.614777,240.2749)"
       y1="270"
       x1="1466.7"
       inkscape:collect="always" /><linearGradient
       id="linearGradient27610"
       inkscape:swatch="gradient"><stop
         style="stop-color:#000000;stop-opacity:0.80979365;"
         offset="0"
         id="stop27606" /><stop
         style="stop-color:#0000a3;stop-opacity:0;"
         offset="1"
         id="stop27608" /></linearGradient><linearGradient
       id="linearGradient39586"
       inkscape:swatch="solid"><stop
         style="stop-color:#ffffff;stop-opacity:1;"
         offset="0"
         id="stop39584" /></linearGradient><filter
       inkscape:collect="always"
       style="color-interpolation-filters:sRGB"
       id="filter18"
       x="-0.0052068388"
       y="-0.0069152274"
       width="1.0104137"
       height="1.0138305"><feGaussianBlur
         inkscape:collect="always"
         stdDeviation="0.10766938"
         id="feGaussianBlur18" /></filter><linearGradient
       inkscape:collect="always"
       xlink:href="#linearGradient18"
       id="linearGradient19"
       x1="273.63571"
       y1="334.91852"
       x2="248.76822"
       y2="387.51569"
       gradientUnits="userSpaceOnUse" /></defs><metadata
     id="metadata24"><rdf:RDF><cc:Work
         rdf:about="" /></rdf:RDF></metadata><text
     xml:space="preserve"
     style="font-style:normal;font-variant:normal;font-weight:normal;font-stretch:normal;font-size:45.0757px;line-height:1.25;font-family:'Luxi Sans';-inkscape-font-specification:'Luxi Sans';fill:url(#linearGradient19);fill-opacity:1;stroke:none;stroke-width:3.414;stroke-dasharray:none;filter:url(#filter18)"
     x="241.37424"
     y="379.05167"
     id="text70021"
     transform="scale(1.0532506,0.94944166)"><tspan
       sodipodi:role="line"
       id="tspan70019"
       x="241.37424"
       y="379.05167"
       style="font-style:normal;font-variant:normal;font-weight:normal;font-stretch:normal;font-family:'Sedgwick Ave Display';-inkscape-font-specification:'Sedgwick Ave Display';fill:url(#linearGradient19);fill-opacity:1;stroke-width:3.414;stroke-dasharray:none">OS</tspan></text><text
     xml:space="preserve"
     style="font-style:normal;font-variant:normal;font-weight:normal;font-stretch:normal;font-size:22.6573px;line-height:1.25;font-family:'Sedgwick Ave Display';-inkscape-font-specification:'Sedgwick Ave Display';fill:#dea101;fill-opacity:1;stroke:none;stroke-width:1.71597"
     x="176.36143"
     y="384.31262"
     id="text53457"
     transform="scale(1.0962983,0.9121605)"><tspan
       sodipodi:role="line"
       id="tspan53455"
       x="176.36143"
       y="384.31262"
       style="font-style:normal;font-variant:normal;font-weight:normal;font-stretch:normal;font-family:'Sedgwick Ave Display';-inkscape-font-specification:'Sedgwick Ave Display';fill:#dea101;fill-opacity:1;stroke-width:1.71597">Macaroni</tspan></text></svg>
